<svg width="46" height="45" viewBox="0 0 46 45" fill="none" xmlns="http://www.w3.org/2000/svg">
<circle cx="23" cy="22.5" r="22.5" fill="#E32780"/>
<path d="M25.75 11.0938C24.2167 11.0938 22.7462 11.7028 21.662 12.787C20.5778 13.8712 19.9687 15.3417 19.9687 16.875V20.0938H16.875C16.72 20.0938 16.5938 20.2188 16.5938 20.375V24.625C16.5938 24.78 16.7187 24.9062 16.875 24.9062H19.9687V33.625C19.9687 33.78 20.0938 33.9062 20.25 33.9062H24.5C24.655 33.9062 24.7812 33.7812 24.7812 33.625V24.9062H27.9025C28.0312 24.9062 28.1437 24.8188 28.175 24.6938L29.2375 20.4437C29.248 20.4023 29.2488 20.359 29.24 20.3171C29.2312 20.2753 29.213 20.236 29.1867 20.2022C29.1604 20.1685 29.1268 20.1412 29.0884 20.1224C29.05 20.1036 29.0078 20.0938 28.965 20.0938H24.7812V16.875C24.7812 16.7478 24.8063 16.6218 24.855 16.5043C24.9037 16.3867 24.975 16.2799 25.065 16.19C25.1549 16.1 25.2617 16.0287 25.3793 15.98C25.4968 15.9313 25.6228 15.9062 25.75 15.9062H29C29.155 15.9062 29.2812 15.7812 29.2812 15.625V11.375C29.2812 11.22 29.1562 11.0938 29 11.0938H25.75Z" fill="white"/>
</svg>
