<svg width="46" height="45" viewBox="0 0 46 45" fill="none" xmlns="http://www.w3.org/2000/svg">
<circle cx="23" cy="22.5" r="22.5" fill="#E32780"/>
<path d="M17.75 10H28.25C32.25 10 35.5 13.25 35.5 17.25V27.75C35.5 29.6728 34.7362 31.5169 33.3765 32.8765C32.0169 34.2362 30.1728 35 28.25 35H17.75C13.75 35 10.5 31.75 10.5 27.75V17.25C10.5 15.3272 11.2638 13.4831 12.6235 12.1235C13.9831 10.7638 15.8272 10 17.75 10ZM17.5 12.5C16.3065 12.5 15.1619 12.9741 14.318 13.818C13.4741 14.6619 13 15.8065 13 17V28C13 30.4875 15.0125 32.5 17.5 32.5H28.5C29.6935 32.5 30.8381 32.0259 31.682 31.182C32.5259 30.3381 33 29.1935 33 28V17C33 14.5125 30.9875 12.5 28.5 12.5H17.5ZM29.5625 14.375C29.9769 14.375 30.3743 14.5396 30.6674 14.8326C30.9604 15.1257 31.125 15.5231 31.125 15.9375C31.125 16.3519 30.9604 16.7493 30.6674 17.0424C30.3743 17.3354 29.9769 17.5 29.5625 17.5C29.1481 17.5 28.7507 17.3354 28.4576 17.0424C28.1646 16.7493 28 16.3519 28 15.9375C28 15.5231 28.1646 15.1257 28.4576 14.8326C28.7507 14.5396 29.1481 14.375 29.5625 14.375ZM23 16.25C24.6576 16.25 26.2473 16.9085 27.4194 18.0806C28.5915 19.2527 29.25 20.8424 29.25 22.5C29.25 24.1576 28.5915 25.7473 27.4194 26.9194C26.2473 28.0915 24.6576 28.75 23 28.75C21.3424 28.75 19.7527 28.0915 18.5806 26.9194C17.4085 25.7473 16.75 24.1576 16.75 22.5C16.75 20.8424 17.4085 19.2527 18.5806 18.0806C19.7527 16.9085 21.3424 16.25 23 16.25ZM23 18.75C22.0054 18.75 21.0516 19.1451 20.3483 19.8483C19.6451 20.5516 19.25 21.5054 19.25 22.5C19.25 23.4946 19.6451 24.4484 20.3483 25.1517C21.0516 25.8549 22.0054 26.25 23 26.25C23.9946 26.25 24.9484 25.8549 25.6517 25.1517C26.3549 24.4484 26.75 23.4946 26.75 22.5C26.75 21.5054 26.3549 20.5516 25.6517 19.8483C24.9484 19.1451 23.9946 18.75 23 18.75Z" fill="white"/>
</svg>
