<svg width="45" height="45" viewBox="0 0 45 45" fill="none" xmlns="http://www.w3.org/2000/svg">
<circle cx="22.5" cy="22.5" r="22.5" fill="#E32780"/>
<path fill-rule="evenodd" clip-rule="evenodd" d="M23.1367 18.495V20.6163C23.5809 19.9396 24.1932 19.3899 24.9137 19.0209C25.6341 18.6519 26.438 18.4763 27.2467 18.5113C31.5655 18.5113 32.4992 21.2113 32.4992 24.7238V31.875H28.4992V25.535C28.4992 24.0225 28.1942 22.0775 25.8392 22.0775C23.5555 22.0775 23.1655 23.7238 23.1655 25.4225V31.875H19.178V18.495H23.1367ZM16.4992 15.1325C16.4987 15.5288 16.3813 15.916 16.1616 16.2458C15.9419 16.5756 15.6297 16.8332 15.2642 16.9863C14.8989 17.1381 14.4966 17.1778 14.1086 17.1004C13.7207 17.0229 13.3645 16.8318 13.0855 16.5513C12.8059 16.2706 12.6156 15.9135 12.5385 15.525C12.4613 15.1364 12.5008 14.7337 12.6519 14.3675C12.803 14.0013 13.059 13.688 13.3877 13.4669C13.7164 13.2458 14.1031 13.1269 14.4992 13.125C14.7625 13.125 15.0232 13.177 15.2663 13.278C15.5095 13.3789 15.7303 13.5269 15.9161 13.7134C16.1019 13.8999 16.2491 14.1213 16.3491 14.3648C16.4492 14.6083 16.5002 14.8692 16.4992 15.1325Z" fill="white"/>
<path d="M16.5 18.5117H12.5V31.8755H16.5V18.5117Z" fill="white"/>
</svg>
