<svg width="45" height="45" viewBox="0 0 45 45" fill="none" xmlns="http://www.w3.org/2000/svg">
<circle cx="22.5" cy="22.5" r="22.5" fill="#E32780"/>
<path d="M35.5719 15C34.6094 15.4375 33.5719 15.725 32.4969 15.8625C33.5969 15.2 34.4469 14.15 34.8469 12.8875C33.8094 13.5125 32.6594 13.95 31.4469 14.2C30.4594 13.125 29.0719 12.5 27.4969 12.5C24.5594 12.5 22.1594 14.9 22.1594 17.8625C22.1594 18.2875 22.2094 18.7 22.2969 19.0875C17.8469 18.8625 13.8844 16.725 11.2469 13.4875C10.7844 14.275 10.5219 15.2 10.5219 16.175C10.5219 18.0375 11.4594 19.6875 12.9094 20.625C12.0219 20.625 11.1969 20.375 10.4719 20V20.0375C10.4719 22.6375 12.3219 24.8125 14.7719 25.3C13.9854 25.5162 13.1594 25.5461 12.3594 25.3875C12.6989 26.4531 13.3638 27.3855 14.2606 28.0537C15.1575 28.7218 16.2412 29.0921 17.3594 29.1125C15.464 30.6131 13.1144 31.4242 10.6969 31.4125C10.2719 31.4125 9.84688 31.3875 9.42188 31.3375C11.7969 32.8625 14.6219 33.75 17.6469 33.75C27.4969 33.75 32.9094 25.575 32.9094 18.4875C32.9094 18.25 32.9094 18.025 32.8969 17.7875C33.9469 17.0375 34.8469 16.0875 35.5719 15Z" fill="white"/>
</svg>
