<svg width="265" height="100" viewBox="0 0 265 100" fill="none" xmlns="http://www.w3.org/2000/svg">
<path d="M0 -1.5H215C242.614 -1.5 265 21.3858 265 49C265 76.6142 242.614 99.5 215 99.5H0V-1.5Z" fill="white"/>
<path d="M14.6095 79.6543V59.2369H23.214C25.3918 59.2369 27.3072 59.6647 28.96 60.5202C30.6323 61.3758 31.9254 62.5717 32.8393 64.1079C33.7727 65.644 34.2394 67.4233 34.2394 69.4456C34.2394 71.4679 33.7727 73.2471 32.8393 74.7833C31.9254 76.3194 30.6323 77.5153 28.96 78.3709C27.3072 79.2265 25.3918 79.6543 23.214 79.6543H14.6095ZM17.5263 77.1167H23.039C24.7307 77.1167 26.1891 76.7959 27.4141 76.1542C28.6586 75.5125 29.6212 74.618 30.3017 73.4707C30.9823 72.304 31.3226 70.9623 31.3226 69.4456C31.3226 67.9094 30.9823 66.5677 30.3017 65.4204C29.6212 64.2732 28.6586 63.3787 27.4141 62.737C26.1891 62.0953 24.7307 61.7745 23.039 61.7745H17.5263V77.1167ZM45.4386 79.8293C43.7858 79.8293 42.3274 79.489 41.0635 78.8084C39.819 78.1279 38.8467 77.1945 38.1467 76.0083C37.4661 74.8222 37.1258 73.461 37.1258 71.9248C37.1258 70.3887 37.4564 69.0275 38.1175 67.8414C38.7981 66.6552 39.7218 65.7316 40.8885 65.0704C42.0746 64.3898 43.4066 64.0495 44.8845 64.0495C46.3817 64.0495 47.704 64.3801 48.8513 65.0412C49.9985 65.7024 50.893 66.6358 51.5347 67.8414C52.1958 69.0275 52.5264 70.4178 52.5264 72.0123C52.5264 72.129 52.5167 72.2651 52.4972 72.4207C52.4972 72.5763 52.4875 72.7221 52.4681 72.8582H39.3134V70.8456H51.0097L49.8721 71.5457C49.8916 70.554 49.6874 69.6692 49.2596 68.8914C48.8318 68.1136 48.2388 67.5108 47.4804 67.083C46.7415 66.6358 45.8762 66.4121 44.8845 66.4121C43.9122 66.4121 43.0469 66.6358 42.2885 67.083C41.5302 67.5108 40.9371 68.1233 40.5093 68.9206C40.0815 69.6984 39.8676 70.5928 39.8676 71.604V72.0707C39.8676 73.1013 40.1009 74.0249 40.5676 74.8416C41.0538 75.6389 41.7246 76.2611 42.5802 76.7084C43.4358 77.1556 44.4178 77.3792 45.5262 77.3792C46.4401 77.3792 47.2665 77.2237 48.0054 76.9125C48.7638 76.6014 49.4249 76.1347 49.9888 75.5125L51.5347 77.3209C50.8347 78.1376 49.9597 78.7598 48.9096 79.1876C47.879 79.6154 46.722 79.8293 45.4386 79.8293ZM56.6709 79.6543V64.1954H59.3544V68.3664L58.9169 67.258C59.4224 66.2468 60.2002 65.4593 61.2503 64.8954C62.3003 64.3315 63.5254 64.0495 64.9254 64.0495C66.1894 64.0495 67.2977 64.2926 68.2505 64.7787C69.2228 65.2649 69.9812 66.0038 70.5256 66.9955C71.0701 67.9872 71.3423 69.2414 71.3423 70.7581V79.6543H68.5422V71.079C68.5422 69.5817 68.1728 68.4539 67.4338 67.6955C66.7144 66.9372 65.6935 66.558 64.3712 66.558C63.3795 66.558 62.5142 66.7524 61.7753 67.1413C61.0364 67.5302 60.4628 68.1039 60.0544 68.8622C59.6655 69.6206 59.471 70.5637 59.471 71.6915V79.6543H56.6709ZM82.0893 79.8293C80.5336 79.8293 79.328 79.4112 78.4725 78.5751C77.6169 77.7389 77.1891 76.5431 77.1891 74.9875V60.8119H79.9892V74.8708C79.9892 75.7069 80.1934 76.3486 80.6017 76.7959C81.0295 77.2431 81.6323 77.4667 82.4101 77.4667C83.2851 77.4667 84.0143 77.2237 84.5977 76.7375L85.4727 78.7501C85.0449 79.1196 84.5296 79.3918 83.9268 79.5668C83.3435 79.7418 82.7309 79.8293 82.0893 79.8293ZM74.564 66.4996V64.1954H84.4227V66.4996H74.564Z" fill="#B4B4B4"/>
<path d="M86.4213 79.6543L98.7014 52.5374H102.537L114.855 79.6543H110.788L99.8248 54.7067H101.374L90.4114 79.6543H86.4213ZM91.651 72.8751L92.697 69.776H107.96L109.083 72.8751H91.651ZM119.157 79.6543V52.5374H129.732C133.245 52.5374 136.008 53.3767 138.022 55.0554C140.037 56.7082 141.044 59.0196 141.044 61.9896C141.044 63.9523 140.592 65.6439 139.688 67.0643C138.784 68.4589 137.493 69.5307 135.814 70.2796C134.136 71.0285 132.108 71.403 129.732 71.403H121.287L123.031 69.621V79.6543H119.157ZM137.286 79.6543L130.391 69.8147H134.536L141.509 79.6543H137.286ZM123.031 70.0084L121.287 68.1102H129.616C132.095 68.1102 133.968 67.5808 135.233 66.522C136.525 65.4373 137.17 63.9265 137.17 61.9896C137.17 60.0526 136.525 58.5548 135.233 57.4959C133.968 56.4371 132.095 55.9076 129.616 55.9076H121.287L123.031 53.9707V70.0084Z" fill="#E32780"/>
<path d="M172.167 37.0645C173.238 31.1947 177.909 26.5838 183.809 25.5986L184.412 28.0508C179.419 28.8023 175.461 32.7043 174.621 37.668L172.167 37.0645ZM197.758 37.8789C197.001 32.8495 193.047 28.8692 188.032 28.0684L188.636 25.6143C194.557 26.6481 199.22 31.3397 200.211 37.2754L197.758 37.8789ZM188.004 51.2129C193.016 50.4252 196.973 46.46 197.75 41.4443L200.203 42.0479C199.193 47.9695 194.525 52.6441 188.607 53.665L188.004 51.2129ZM183.837 53.6816C177.941 52.7093 173.267 48.1144 172.177 42.2588L174.63 41.6543C175.489 46.6042 179.45 50.4899 184.44 51.2285L183.837 53.6816Z" fill="url(#paint0_linear_813_355)"/>
<path d="M197.134 40.5416C196.209 40.3139 196.209 38.9991 197.134 38.7714L206.431 36.4825C207.005 36.3411 207.56 36.7759 207.56 37.3676L207.56 41.9454C207.56 42.5371 207.005 42.9719 206.431 42.8305L197.134 40.5416Z" fill="#E32780"/>
<path d="M185.281 29.4531C185.508 30.3778 186.823 30.3778 187.051 29.4531L189.34 20.1563C189.481 19.5818 189.046 19.0269 188.455 19.0269L183.877 19.0269C183.285 19.0269 182.85 19.5818 182.992 20.1563L185.281 29.4531Z" fill="#E32780"/>
<path d="M185.281 50.6505C185.508 49.7257 186.823 49.7257 187.051 50.6505L189.34 59.9472C189.481 60.5217 189.046 61.0766 188.455 61.0766H183.877C183.285 61.0766 182.85 60.5217 182.992 59.9472L185.281 50.6505Z" fill="#E32780"/>
<path d="M175.327 40.5416C176.252 40.3139 176.252 38.9991 175.327 38.7714L166.03 36.4825C165.456 36.3411 164.901 36.7759 164.901 37.3676L164.901 41.9454C164.901 42.5371 165.456 42.9719 166.03 42.8305L175.327 40.5416Z" fill="#E32780"/>
<path d="M146.328 31.411C154.275 19.6629 161.93 28.9401 171.057 28.9403C173.732 28.7654 176.203 27.8657 178.578 26.9901C176.865 27.9326 175.359 29.2049 174.144 30.7206C173.201 30.932 172.219 31.0906 171.202 31.1571L171.13 31.162H171.057C168.416 31.1619 165.955 30.4908 163.778 29.788C161.488 29.0486 159.665 28.3376 157.793 27.9442C156.015 27.5706 154.509 27.5691 153.079 28.1346C151.731 28.6682 150.197 29.8078 148.509 32.1678L148.169 32.6561C145.489 36.6185 145.851 40.9 147.165 45.4169C147.836 47.7205 148.669 49.8284 149.431 52.0487C150.148 54.1368 150.817 56.3699 150.817 58.4315C150.817 63.7598 151.399 69.8543 152.668 74.5458C153.307 76.9064 154.078 78.7557 154.925 79.9647C155.771 81.1718 156.447 81.4246 156.918 81.4247C157.821 81.4247 158.628 80.9539 159.511 79.246C160.421 77.486 161.058 75.0582 161.789 72.2684C162.479 69.6363 163.261 66.6487 164.512 64.3387C165.802 61.9565 167.88 59.7959 171.254 59.7958C172.857 59.7958 174.242 60.2974 175.381 61.204C176.476 62.0757 177.24 63.238 177.805 64.4218C178.903 66.7212 179.518 69.7165 180.096 72.288C180.714 75.0382 181.305 77.3952 182.256 79.077C182.712 79.8823 183.194 80.4243 183.701 80.7665C184.184 81.0916 184.796 81.3104 185.667 81.3104C186.277 81.3104 186.99 81.0089 187.817 79.8641C188.664 78.6916 189.424 76.889 190.043 74.5585C191.274 69.9254 191.783 63.8628 191.783 58.4315C191.783 56.7408 192.197 54.8718 192.696 53.038C193.741 52.4775 194.711 51.7957 195.587 51.0106C194.756 53.8334 194.005 56.383 194.005 58.4315C194.005 69.4888 191.943 83.533 185.667 83.5331C175.382 83.5327 180.118 62.0175 171.254 62.0175C162.39 62.0181 165.387 83.6463 156.918 83.6464C150.964 83.6462 148.595 69.3316 148.595 58.4315C148.595 51.8264 139.848 40.9916 146.328 31.411Z" fill="url(#paint1_linear_813_355)"/>
<defs>
<linearGradient id="paint0_linear_813_355" x1="186.189" y1="26.091" x2="186.189" y2="72.7994" gradientUnits="userSpaceOnUse">
<stop stop-color="#BADAF7"/>
<stop offset="0.807692" stop-color="#E32780"/>
</linearGradient>
<linearGradient id="paint1_linear_813_355" x1="169.762" y1="25.4619" x2="169.762" y2="83.6463" gradientUnits="userSpaceOnUse">
<stop stop-color="#BADAF7"/>
<stop offset="0.807692" stop-color="#E32780"/>
</linearGradient>
</defs>
</svg>
