<svg width="640" height="498" viewBox="0 0 640 498" fill="none" xmlns="http://www.w3.org/2000/svg">
<path fill-rule="evenodd" clip-rule="evenodd" d="M397.48 280.646C397.48 362.357 382.245 466.136 335.866 466.136C259.855 466.136 294.862 307.145 229.358 307.145C163.855 307.145 186.005 466.973 123.418 466.973C79.4161 466.973 61.9125 361.195 61.9125 280.646C61.9125 231.836 -2.72663 151.773 45.1652 80.9753C103.889 -5.84046 160.451 62.7154 227.9 62.7154C296.375 62.7154 349.777 -4.40884 412.336 80.9753C461.93 148.748 397.48 232.673 397.48 280.646Z" fill="url(#paint0_linear_178_16651)"/>
<path fill-rule="evenodd" clip-rule="evenodd" d="M397.476 280.646C397.476 362.357 382.241 466.136 335.862 466.136C259.851 466.136 294.858 307.145 229.355 307.145C163.851 307.145 186.001 466.973 123.414 466.973C79.4122 466.973 61.9086 361.195 61.9086 280.646C61.9086 231.836 -2.73054 151.773 45.1613 80.9753C103.885 -5.84046 160.448 62.7154 227.896 62.7154C296.371 62.7154 349.773 -4.40884 412.332 80.9753C461.926 148.748 397.476 232.673 397.476 280.646Z" fill="url(#paint1_linear_178_16651)"/>
<g clip-path="url(#clip0_178_16651)">
<path fill-rule="evenodd" clip-rule="evenodd" d="M609.035 389.648C609.035 430.645 601.391 482.716 578.121 482.716C539.983 482.716 557.547 402.943 524.681 402.943C491.815 402.943 502.929 483.136 471.527 483.136C449.449 483.136 440.667 430.062 440.667 389.648C440.667 365.157 408.234 324.986 432.264 289.464C461.728 245.905 490.108 280.302 523.949 280.302C558.306 280.302 585.1 246.623 616.489 289.464C641.372 323.468 609.035 365.577 609.035 389.648Z" fill="url(#paint2_linear_178_16651)"/>
</g>
<path d="M565.9 46.6006C565.9 71.9504 545.35 92.5006 520 92.5006C545.35 92.5006 565.9 113.051 565.9 138.401C565.9 113.051 586.45 92.5006 611.8 92.5006C586.45 92.5006 565.9 71.9504 565.9 46.6006Z" fill="#E32780"/>
<path d="M517.6 35.8164C517.6 46.6323 508.832 55.4004 498.016 55.4004C508.832 55.4004 517.6 64.1684 517.6 74.9844C517.6 64.1684 526.368 55.4004 537.184 55.4004C526.368 55.4004 517.6 46.6323 517.6 35.8164Z" fill="#E32780"/>
<path d="M510.767 96.2002C510.767 114.959 495.56 130.166 476.801 130.166C495.56 130.166 510.767 145.373 510.767 164.132C510.767 145.373 525.974 130.166 544.733 130.166C525.974 130.166 510.767 114.959 510.767 96.2002Z" fill="#E32780"/>
<defs>
<linearGradient id="paint0_linear_178_16651" x1="229.294" y1="37.0127" x2="167.202" y2="375.4" gradientUnits="userSpaceOnUse">
<stop stop-color="#B2D9FF"/>
<stop offset="0.746414" stop-color="#F18EBD"/>
<stop offset="1" stop-color="#E32780"/>
</linearGradient>
<linearGradient id="paint1_linear_178_16651" x1="229.29" y1="37.0127" x2="167.198" y2="375.4" gradientUnits="userSpaceOnUse">
<stop stop-color="#B2D9FF"/>
<stop offset="0.746414" stop-color="#F18EBD"/>
<stop offset="1" stop-color="#E32780"/>
</linearGradient>
<linearGradient id="paint2_linear_178_16651" x1="524.649" y1="267.406" x2="493.495" y2="437.19" gradientUnits="userSpaceOnUse">
<stop stop-color="#B2D9FF"/>
<stop offset="0.746414" stop-color="#F18EBD"/>
<stop offset="1" stop-color="#E32780"/>
</linearGradient>
<clipPath id="clip0_178_16651">
<rect width="230.4" height="230.4" fill="white" transform="translate(409.602 267.4)"/>
</clipPath>
</defs>
</svg>
