<svg width="24" height="24" viewBox="0 0 24 24" fill="none" xmlns="http://www.w3.org/2000/svg">
<path d="M11.6666 14.3087C11.895 14.3087 12.1182 14.241 12.308 14.1141C12.4979 13.9873 12.6459 13.807 12.7333 13.596C12.8207 13.385 12.8435 13.1529 12.799 12.9289C12.7544 12.705 12.6445 12.4992 12.483 12.3378C12.3215 12.1763 12.1158 12.0664 11.8919 12.0218C11.6679 11.9773 11.4358 12.0001 11.2248 12.0875C11.0138 12.1749 10.8335 12.3229 10.7066 12.5127C10.5798 12.7026 10.5121 12.9258 10.5121 13.1542C10.5121 13.4604 10.6337 13.754 10.8502 13.9706C11.0667 14.1871 11.3604 14.3087 11.6666 14.3087ZM17.4394 14.3087C17.6677 14.3087 17.8909 14.241 18.0808 14.1141C18.2707 13.9873 18.4187 13.807 18.506 13.596C18.5934 13.385 18.6163 13.1529 18.5717 12.9289C18.5272 12.705 18.4172 12.4992 18.2558 12.3378C18.0943 12.1763 17.8886 12.0664 17.6646 12.0218C17.4407 11.9773 17.2085 12.0001 16.9975 12.0875C16.7866 12.1749 16.6063 12.3229 16.4794 12.5127C16.3525 12.7026 16.2848 12.9258 16.2848 13.1542C16.2848 13.4604 16.4065 13.754 16.623 13.9706C16.8395 14.1871 17.1332 14.3087 17.4394 14.3087ZM11.6666 18.9269C11.895 18.9269 12.1182 18.8592 12.308 18.7324C12.4979 18.6055 12.6459 18.4252 12.7333 18.2142C12.8207 18.0032 12.8435 17.7711 12.799 17.5471C12.7544 17.3232 12.6445 17.1175 12.483 16.956C12.3215 16.7945 12.1158 16.6846 11.8919 16.64C11.6679 16.5955 11.4358 16.6183 11.2248 16.7057C11.0138 16.7931 10.8335 16.9411 10.7066 17.1309C10.5798 17.3208 10.5121 17.544 10.5121 17.7724C10.5121 18.0786 10.6337 18.3722 10.8502 18.5888C11.0667 18.8053 11.3604 18.9269 11.6666 18.9269ZM17.4394 18.9269C17.6677 18.9269 17.8909 18.8592 18.0808 18.7324C18.2707 18.6055 18.4187 18.4252 18.506 18.2142C18.5934 18.0032 18.6163 17.7711 18.5717 17.5471C18.5272 17.3232 18.4172 17.1175 18.2558 16.956C18.0943 16.7945 17.8886 16.6846 17.6646 16.64C17.4407 16.5955 17.2085 16.6183 16.9975 16.7057C16.7866 16.7931 16.6063 16.9411 16.4794 17.1309C16.3525 17.3208 16.2848 17.544 16.2848 17.7724C16.2848 18.0786 16.4065 18.3722 16.623 18.5888C16.8395 18.8053 17.1332 18.9269 17.4394 18.9269ZM5.89385 14.3087C6.1222 14.3087 6.34542 14.241 6.53529 14.1141C6.72515 13.9873 6.87313 13.807 6.96052 13.596C7.0479 13.385 7.07077 13.1529 7.02622 12.9289C6.98167 12.705 6.87171 12.4992 6.71024 12.3378C6.54878 12.1763 6.34306 12.0664 6.11909 12.0218C5.89513 11.9773 5.66299 12.0001 5.45202 12.0875C5.24106 12.1749 5.06074 12.3229 4.93388 12.5127C4.80701 12.7026 4.7393 12.9258 4.7393 13.1542C4.7393 13.4604 4.86094 13.754 5.07746 13.9706C5.29398 14.1871 5.58765 14.3087 5.89385 14.3087ZM19.7485 2.76321H18.5939V1.60865C18.5939 1.30245 18.4723 1.00878 18.2558 0.792262C18.0392 0.575741 17.7456 0.454102 17.4394 0.454102C17.1332 0.454102 16.8395 0.575741 16.623 0.792262C16.4065 1.00878 16.2848 1.30245 16.2848 1.60865V2.76321H7.0484V1.60865C7.0484 1.30245 6.92676 1.00878 6.71024 0.792262C6.49372 0.575741 6.20006 0.454102 5.89385 0.454102C5.58765 0.454102 5.29398 0.575741 5.07746 0.792262C4.86094 1.00878 4.7393 1.30245 4.7393 1.60865V2.76321H3.58475C2.66613 2.76321 1.78514 3.12812 1.13557 3.77769C0.486014 4.42725 0.121094 5.30824 0.121094 6.22686V20.0815C0.121094 21.0001 0.486014 21.8811 1.13557 22.5307C1.78514 23.1802 2.66613 23.5451 3.58475 23.5451H19.7485C20.6671 23.5451 21.5481 23.1802 22.1976 22.5307C22.8472 21.8811 23.2121 21.0001 23.2121 20.0815V6.22686C23.2121 5.30824 22.8472 4.42725 22.1976 3.77769C21.5481 3.12812 20.6671 2.76321 19.7485 2.76321ZM20.903 20.0815C20.903 20.3877 20.7814 20.6814 20.5649 20.8979C20.3483 21.1144 20.0547 21.236 19.7485 21.236H3.58475C3.27854 21.236 2.98488 21.1144 2.76836 20.8979C2.55184 20.6814 2.4302 20.3877 2.4302 20.0815V9.69052H20.903V20.0815ZM20.903 7.38141H2.4302V6.22686C2.4302 5.92065 2.55184 5.62699 2.76836 5.41047C2.98488 5.19395 3.27854 5.07231 3.58475 5.07231H19.7485C20.0547 5.07231 20.3483 5.19395 20.5649 5.41047C20.7814 5.62699 20.903 5.92065 20.903 6.22686V7.38141ZM5.89385 18.9269C6.1222 18.9269 6.34542 18.8592 6.53529 18.7324C6.72515 18.6055 6.87313 18.4252 6.96052 18.2142C7.0479 18.0032 7.07077 17.7711 7.02622 17.5471C6.98167 17.3232 6.87171 17.1175 6.71024 16.956C6.54878 16.7945 6.34306 16.6846 6.11909 16.64C5.89513 16.5955 5.66299 16.6183 5.45202 16.7057C5.24106 16.7931 5.06074 16.9411 4.93388 17.1309C4.80701 17.3208 4.7393 17.544 4.7393 17.7724C4.7393 18.0786 4.86094 18.3722 5.07746 18.5888C5.29398 18.8053 5.58765 18.9269 5.89385 18.9269Z" fill="white"/>
</svg>
