<svg width="22" height="24" viewBox="0 0 22 24" fill="none" xmlns="http://www.w3.org/2000/svg">
<path d="M20.0708 7.39537L13.1435 1.32243C12.5085 0.754441 11.6864 0.44043 10.8344 0.44043C9.98245 0.44043 9.16036 0.754441 8.52533 1.32243L1.59802 7.39537C1.2313 7.72335 0.938656 8.12569 0.739579 8.5756C0.540502 9.02552 0.439558 9.51268 0.443469 10.0047V20.0954C0.443469 21.0141 0.808389 21.8951 1.45795 22.5446C2.10751 23.1942 2.98851 23.5591 3.90712 23.5591H17.7617C18.6804 23.5591 19.5614 23.1942 20.2109 22.5446C20.8605 21.8951 21.2254 21.0141 21.2254 20.0954V9.99311C21.2277 9.50308 21.1259 9.01814 20.9269 8.57034C20.7279 8.12253 20.4361 7.72206 20.0708 7.39537ZM13.1435 21.25H8.52533V15.4772C8.52533 15.171 8.64697 14.8774 8.86349 14.6608C9.08001 14.4443 9.37368 14.3227 9.67988 14.3227H11.989C12.2952 14.3227 12.5889 14.4443 12.8054 14.6608C13.0219 14.8774 13.1435 15.171 13.1435 15.4772V21.25ZM18.9163 20.0954C18.9163 20.4016 18.7947 20.6953 18.5781 20.9118C18.3616 21.1283 18.0679 21.25 17.7617 21.25H15.4526V15.4772C15.4526 14.5586 15.0877 13.6776 14.4382 13.0281C13.7886 12.3785 12.9076 12.0136 11.989 12.0136H9.67988C8.76126 12.0136 7.88027 12.3785 7.23071 13.0281C6.58115 13.6776 6.21623 14.5586 6.21623 15.4772V21.25H3.90712C3.60092 21.25 3.30725 21.1283 3.09073 20.9118C2.87421 20.6953 2.75257 20.4016 2.75257 20.0954V9.99311C2.75278 9.82918 2.78789 9.66718 2.85558 9.51787C2.92326 9.36857 3.02197 9.23539 3.14512 9.1272L10.0724 3.0658C10.2831 2.8807 10.554 2.77862 10.8344 2.77862C11.1149 2.77862 11.3857 2.8807 11.5964 3.0658L18.5237 9.1272C18.6469 9.23539 18.7456 9.36857 18.8133 9.51787C18.881 9.66718 18.9161 9.82918 18.9163 9.99311V20.0954Z" fill="white"/>
</svg>
