<svg width="21" height="22" viewBox="0 0 21 22" fill="none" xmlns="http://www.w3.org/2000/svg">
<path d="M1.14847 7.88305C1.42406 7.88305 1.68836 7.77357 1.88322 7.57871C2.07809 7.38384 2.18757 7.11954 2.18757 6.84395V3.72666C2.18757 3.45108 2.29704 3.18678 2.49191 2.99191C2.68678 2.79704 2.95108 2.68757 3.22666 2.68757H6.34395C6.61954 2.68757 6.88384 2.57809 7.07871 2.38322C7.27357 2.18836 7.38305 1.92406 7.38305 1.64847C7.38305 1.37289 7.27357 1.10859 7.07871 0.913719C6.88384 0.718851 6.61954 0.609375 6.34395 0.609375H3.22666C2.39991 0.609375 1.60701 0.937803 1.02241 1.52241C0.437803 2.10701 0.109375 2.89991 0.109375 3.72666V6.84395C0.109375 7.11954 0.218851 7.38384 0.413719 7.57871C0.608588 7.77357 0.872886 7.88305 1.14847 7.88305ZM6.34395 19.3131H3.22666C2.95108 19.3131 2.68678 19.2036 2.49191 19.0088C2.29704 18.8139 2.18757 18.5496 2.18757 18.274V15.1567C2.18757 14.8811 2.07809 14.6168 1.88322 14.422C1.68836 14.2271 1.42406 14.1176 1.14847 14.1176C0.872886 14.1176 0.608588 14.2271 0.413719 14.422C0.218851 14.6168 0.109375 14.8811 0.109375 15.1567V18.274C0.109375 19.1008 0.437803 19.8937 1.02241 20.4783C1.60701 21.0629 2.39991 21.3913 3.22666 21.3913H6.34395C6.61954 21.3913 6.88384 21.2818 7.07871 21.087C7.27357 20.8921 7.38305 20.6278 7.38305 20.3522C7.38305 20.0766 7.27357 19.8123 7.07871 19.6175C6.88384 19.4226 6.61954 19.3131 6.34395 19.3131ZM10.5003 6.84395C9.67829 6.84395 8.87469 7.08772 8.19118 7.54443C7.50766 8.00114 6.97493 8.65028 6.66034 9.40976C6.34575 10.1692 6.26344 11.005 6.42382 11.8112C6.58419 12.6175 6.98005 13.3581 7.56133 13.9394C8.14261 14.5206 8.88321 14.9165 9.68947 15.0769C10.4957 15.2372 11.3314 15.1549 12.0909 14.8403C12.8504 14.5258 13.4995 13.993 13.9562 13.3095C14.413 12.626 14.6567 11.8224 14.6567 11.0003C14.6567 9.898 14.2188 8.84081 13.4394 8.06133C12.6599 7.28186 11.6027 6.84395 10.5003 6.84395ZM10.5003 13.0785C10.0893 13.0785 9.68752 12.9566 9.34576 12.7283C9.004 12.4999 8.73763 12.1754 8.58034 11.7956C8.42305 11.4159 8.38189 10.998 8.46208 10.5949C8.54227 10.1918 8.7402 9.82148 9.03084 9.53084C9.32148 9.2402 9.69178 9.04227 10.0949 8.96208C10.498 8.88189 10.9159 8.92305 11.2956 9.08034C11.6754 9.23763 11.9999 9.504 12.2283 9.84576C12.4566 10.1875 12.5785 10.5893 12.5785 11.0003C12.5785 11.5515 12.3596 12.0801 11.9698 12.4698C11.5801 12.8596 11.0515 13.0785 10.5003 13.0785ZM17.774 0.609375H14.6567C14.3811 0.609375 14.1168 0.718851 13.922 0.913719C13.7271 1.10859 13.6176 1.37289 13.6176 1.64847C13.6176 1.92406 13.7271 2.18836 13.922 2.38322C14.1168 2.57809 14.3811 2.68757 14.6567 2.68757H17.774C18.0496 2.68757 18.3139 2.79704 18.5088 2.99191C18.7036 3.18678 18.8131 3.45108 18.8131 3.72666V6.84395C18.8131 7.11954 18.9226 7.38384 19.1175 7.57871C19.3123 7.77357 19.5766 7.88305 19.8522 7.88305C20.1278 7.88305 20.3921 7.77357 20.587 7.57871C20.7818 7.38384 20.8913 7.11954 20.8913 6.84395V3.72666C20.8913 2.89991 20.5629 2.10701 19.9783 1.52241C19.3937 0.937803 18.6008 0.609375 17.774 0.609375ZM19.8522 14.1176C19.5766 14.1176 19.3123 14.2271 19.1175 14.422C18.9226 14.6168 18.8131 14.8811 18.8131 15.1567V18.274C18.8131 18.5496 18.7036 18.8139 18.5088 19.0088C18.3139 19.2036 18.0496 19.3131 17.774 19.3131H14.6567C14.3811 19.3131 14.1168 19.4226 13.922 19.6175C13.7271 19.8123 13.6176 20.0766 13.6176 20.3522C13.6176 20.6278 13.7271 20.8921 13.922 21.087C14.1168 21.2818 14.3811 21.3913 14.6567 21.3913H17.774C18.6008 21.3913 19.3937 21.0629 19.9783 20.4783C20.5629 19.8937 20.8913 19.1008 20.8913 18.274V15.1567C20.8913 14.8811 20.7818 14.6168 20.587 14.422C20.3921 14.2271 20.1278 14.1176 19.8522 14.1176Z" fill="white"/>
</svg>
