<svg width="20" height="24" viewBox="0 0 20 24" fill="none" xmlns="http://www.w3.org/2000/svg">
<path d="M19.0705 8.46669C19.0585 8.36063 19.0352 8.25614 19.0012 8.15496V8.05105C18.9457 7.93234 18.8717 7.82322 18.7818 7.72778L11.8545 0.800467C11.7591 0.710662 11.65 0.636614 11.5313 0.581102C11.4968 0.576207 11.4618 0.576207 11.4274 0.581102C11.3101 0.51384 11.1805 0.470663 11.0463 0.454102H4.06131C3.14269 0.454102 2.2617 0.819021 1.61214 1.46858C0.962576 2.11814 0.597656 2.99914 0.597656 3.91776V20.0815C0.597656 21.0001 0.962576 21.8811 1.61214 22.5307C2.2617 23.1802 3.14269 23.5451 4.06131 23.5451H15.6068C16.5254 23.5451 17.4064 23.1802 18.056 22.5307C18.7056 21.8811 19.0705 21.0001 19.0705 20.0815V8.53596C19.0705 8.53596 19.0705 8.53596 19.0705 8.46669ZM12.1432 4.39112L15.1335 7.38141H13.2977C12.9915 7.38141 12.6979 7.25977 12.4813 7.04325C12.2648 6.82673 12.1432 6.53307 12.1432 6.22686V4.39112ZM16.7614 20.0815C16.7614 20.3877 16.6397 20.6814 16.4232 20.8979C16.2067 21.1144 15.913 21.236 15.6068 21.236H4.06131C3.75511 21.236 3.46144 21.1144 3.24492 20.8979C3.0284 20.6814 2.90676 20.3877 2.90676 20.0815V3.91776C2.90676 3.61155 3.0284 3.31789 3.24492 3.10137C3.46144 2.88485 3.75511 2.76321 4.06131 2.76321H9.83407V6.22686C9.83407 7.14548 10.199 8.02647 10.8485 8.67603C11.4981 9.3256 12.3791 9.69052 13.2977 9.69052H16.7614V20.0815ZM12.1432 14.3087H10.9886V13.1542C10.9886 12.848 10.867 12.5543 10.6505 12.3378C10.4339 12.1213 10.1403 11.9996 9.83407 11.9996C9.52786 11.9996 9.2342 12.1213 9.01768 12.3378C8.80116 12.5543 8.67952 12.848 8.67952 13.1542V14.3087H7.52497C7.21876 14.3087 6.9251 14.4304 6.70857 14.6469C6.49205 14.8634 6.37041 15.1571 6.37041 15.4633C6.37041 15.7695 6.49205 16.0631 6.70857 16.2797C6.9251 16.4962 7.21876 16.6178 7.52497 16.6178H8.67952V17.7724C8.67952 18.0786 8.80116 18.3722 9.01768 18.5888C9.2342 18.8053 9.52786 18.9269 9.83407 18.9269C10.1403 18.9269 10.4339 18.8053 10.6505 18.5888C10.867 18.3722 10.9886 18.0786 10.9886 17.7724V16.6178H12.1432C12.4494 16.6178 12.743 16.4962 12.9596 16.2797C13.1761 16.0631 13.2977 15.7695 13.2977 15.4633C13.2977 15.1571 13.1761 14.8634 12.9596 14.6469C12.743 14.4304 12.4494 14.3087 12.1432 14.3087Z" fill="white"/>
</svg>
