<svg width="38" height="37" viewBox="0 0 38 37" fill="none" xmlns="http://www.w3.org/2000/svg">
<path d="M24.3714 19.7573C24.3215 19.755 24.2633 19.7538 24.2052 19.7538C21.956 19.7538 20.1249 21.494 20.0537 23.6666V23.6735C20.1154 25.771 21.8765 27.4475 24.0401 27.4475C24.0947 27.4475 24.1482 27.4464 24.2016 27.444H24.1945C24.255 27.4475 24.3251 27.4487 24.3963 27.4487C26.6336 27.4487 28.4576 25.7235 28.5419 23.5648V23.5579C28.5051 21.4489 26.7405 19.7527 24.5685 19.7527C24.4997 19.7527 24.4308 19.755 24.3619 19.7573H24.3714ZM1.19141 10.8565L8.83416 27.5597L6.08866 33.5849H12.8111L22.9915 10.8565H16.3142L12.1592 20.5805L8.04803 10.8565H1.19259H1.19141ZM29.1796 3.41602L22.3681 18.3131H29.9812L36.8069 3.41602H29.1796Z" fill="#6000D3"/>
</svg>
